<?xml version="1.0" standalone="no"?>
<!DOCTYPE svg PUBLIC "-//W3C//DTD SVG 20010904//EN"
 "http://www.w3.org/TR/2001/REC-SVG-20010904/DTD/svg10.dtd">
<svg version="1.0" xmlns="http://www.w3.org/2000/svg"
 width="379.000000pt" height="385.000000pt" viewBox="0 0 379.000000 385.000000"
 preserveAspectRatio="xMidYMid meet">
<metadata>
Created by potrace 1.16, written by Peter Selinger 2001-2019
</metadata>
<g transform="translate(0.000000,385.000000) scale(0.100000,-0.100000)"
fill="#000000" stroke="none">
<path d="M2115 3727 c-15 -12 -35 -47 -45 -77 -18 -55 -18 -55 -92 -63 -335
-35 -460 -59 -587 -111 -32 -13 -63 -21 -67 -17 -5 3 -26 27 -46 53 -67 83
-165 109 -255 69 -64 -30 -89 -97 -62 -168 6 -15 28 -52 50 -81 40 -53 40 -53
-7 -105 -85 -93 -178 -248 -215 -356 -25 -70 -26 -235 -2 -346 11 -56 16 -130
16 -250 0 -154 -2 -179 -27 -270 -15 -55 -54 -170 -88 -255 -130 -336 -131
-340 -132 -485 -1 -71 1 -150 4 -175 5 -44 5 -44 -37 -51 -52 -10 -110 -39
-151 -77 -52 -49 -39 -103 35 -141 29 -15 83 -14 170 3 73 14 73 14 110 -38
52 -74 176 -218 248 -290 63 -63 63 -63 58 -147 -8 -123 20 -169 100 -169 58
0 113 61 132 147 8 39 1 38 158 17 211 -28 480 -2 672 66 60 21 60 21 85 -12
106 -139 151 -178 201 -178 37 0 69 32 69 68 0 33 -38 115 -81 179 -32 47 -32
47 2 72 72 53 209 200 263 283 82 127 164 302 262 563 61 163 94 268 113 360
26 130 26 130 87 143 88 19 203 79 231 121 32 48 31 104 -3 138 -25 25 -28 25
-117 20 -51 -4 -105 -9 -120 -13 -29 -7 -29 -7 -24 130 4 132 5 138 31 165 15
15 46 34 69 41 102 30 197 122 238 228 31 84 24 207 -16 286 -77 152 -253 238
-427 208 -72 -13 -72 -13 -132 46 -99 96 -251 186 -433 257 -73 28 -73 28 -73
74 0 67 -17 117 -47 141 -34 27 -85 26 -118 -3z m112 -47 c7 -14 13 -47 13
-74 0 -38 -3 -47 -15 -42 -8 3 -38 8 -66 12 -28 4 -53 13 -56 20 -8 21 4 57
28 88 28 35 77 33 96 -4z m-1033 -144 c30 -17 58 -50 100 -115 39 -60 66 -91
78 -91 23 0 23 15 -3 56 -20 33 -20 33 18 49 120 51 285 84 520 105 197 18
343 -12 548 -110 197 -95 325 -193 391 -301 37 -62 84 -178 84 -209 0 -18 -5
-20 -52 -14 -72 8 -127 -8 -168 -51 -29 -30 -35 -43 -35 -82 -1 -40 -5 -49
-26 -58 -80 -34 -137 -116 -124 -181 11 -63 77 -121 158 -138 25 -6 27 -10 27
-56 0 -62 20 -78 113 -87 83 -7 121 7 147 56 19 36 19 36 19 -19 1 -153 -46
-537 -80 -646 -27 -87 -146 -404 -194 -514 -187 -435 -410 -633 -815 -724
-175 -39 -427 -46 -587 -16 -60 12 -61 12 -51 36 9 19 8 28 -1 37 -10 9 -18 5
-39 -21 -15 -18 -31 -32 -35 -32 -5 0 -27 16 -50 35 -46 40 -50 41 -71 19 -15
-14 -17 -13 -26 11 -5 14 -10 30 -10 35 0 17 -21 22 -37 8 -14 -11 -26 -2 -95
72 -208 223 -284 366 -308 584 -16 151 3 228 139 574 76 194 98 272 112 402
12 114 6 229 -17 384 -10 58 -14 141 -12 205 3 101 5 110 45 194 50 102 115
203 174 266 41 44 41 44 76 3 36 -43 63 -54 63 -26 0 9 -31 55 -69 103 -91
114 -111 149 -111 192 0 35 25 69 60 82 38 14 105 6 144 -17z m1932 -378 c85
-31 204 -154 204 -210 0 -15 -4 -16 -27 -7 -38 14 -79 2 -108 -33 -36 -42 -34
-91 6 -130 28 -29 34 -30 85 -25 30 3 54 3 54 0 0 -3 -14 -32 -32 -65 -35 -65
-88 -117 -155 -149 -55 -27 -73 -20 -73 26 0 46 -22 88 -60 115 -24 17 -28 25
-20 40 15 28 12 92 -5 116 -8 12 -21 54 -29 94 -9 40 -32 109 -52 152 -21 43
-34 81 -30 85 12 12 90 21 141 16 28 -3 73 -14 101 -25z m150 -317 c-22 -21
-46 0 -26 24 10 12 16 13 27 3 12 -10 12 -13 -1 -27z m-416 -171 c19 -5 55
-10 80 -10 58 0 87 -20 101 -72 14 -55 -2 -111 -38 -136 -23 -14 -51 -17 -178
-17 -160 0 -188 7 -235 57 -30 32 -27 95 5 131 70 74 135 86 265 47z m82 -305
c-6 -59 -26 -75 -93 -75 -81 0 -99 11 -99 60 0 39 0 39 78 43 121 5 117 6 114
-28z m316 -247 c15 -13 16 -62 2 -88 -14 -25 -82 -65 -155 -90 -74 -26 -108
-26 -101 -2 2 9 8 50 11 90 7 66 10 74 32 83 72 27 182 31 211 7z m-2661
-1173 c13 -32 23 -62 23 -66 0 -10 -93 -29 -141 -29 -48 0 -99 27 -99 52 0 20
49 59 110 87 67 31 80 25 107 -44z m1701 -497 c76 -111 91 -180 41 -186 -32
-4 -67 24 -122 96 -64 83 -63 78 -10 106 26 14 51 25 55 26 4 0 20 -19 36 -42z
m-1165 -58 c14 -16 33 -30 41 -30 20 0 20 -21 1 -67 -24 -57 -43 -73 -87 -73
-35 0 -40 3 -54 37 -11 25 -14 50 -9 80 6 39 8 43 30 37 20 -5 25 -1 31 20 8
33 17 33 47 -4z"/>
<path d="M1121 3446 c-41 -49 87 -215 135 -175 33 27 9 94 -55 152 -44 40 -62
45 -80 23z"/>
<path d="M1921 3185 c-132 -37 -240 -126 -298 -243 -37 -74 -38 -79 -38 -186
0 -104 2 -115 31 -176 59 -122 155 -203 291 -247 274 -86 562 83 614 361 35
191 -94 398 -301 480 -63 25 -227 31 -299 11z m210 -25 c89 -16 190 -72 252
-140 76 -81 101 -147 102 -265 0 -81 -3 -97 -31 -156 -76 -161 -221 -249 -407
-249 -384 1 -575 423 -311 687 103 104 251 150 395 123z"/>
<path d="M2133 2949 c-67 -19 -115 -99 -99 -163 9 -38 53 -83 93 -96 111 -37
230 49 208 151 -10 43 -60 97 -103 109 -43 12 -56 11 -99 -1z m35 -76 c13 -26
4 -43 -23 -43 -29 0 -39 24 -19 45 20 20 31 19 42 -2z"/>
<path d="M2607 2056 c-105 -44 -208 -149 -267 -272 -17 -34 -44 -124 -61 -200
-54 -240 -100 -344 -230 -514 -92 -122 -122 -186 -122 -266 -1 -48 5 -70 26
-106 59 -101 202 -165 277 -124 23 13 21 14 -30 14 -130 -1 -249 102 -250 214
0 69 34 135 156 298 110 147 168 290 209 519 21 115 80 225 165 312 75 76 132
109 204 116 74 8 126 -10 185 -63 52 -47 70 -41 30 10 -62 79 -189 106 -292
62z"/>
<path d="M1455 1690 c-4 -6 7 -24 24 -41 28 -28 31 -36 31 -98 0 -85 22 -158
63 -213 61 -79 144 -85 188 -14 22 37 23 70 4 151 -20 80 -19 169 0 185 8 7
15 19 15 26 0 23 -39 16 -56 -11 -19 -28 -36 -32 -54 -10 -18 22 -39 18 -51
-9 -10 -21 -15 -23 -41 -15 -17 4 -45 20 -63 34 -36 27 -50 31 -60 15z m241
-102 c9 -10 34 -156 34 -203 0 -49 -14 -65 -55 -65 -63 0 -113 84 -122 204 -6
71 -6 71 65 70 40 0 74 -3 78 -6z"/>
</g>
</svg>
